<svg xmlns="http://www.w3.org/2000/svg" viewBox="0 0 500 500"><defs><style>.cls-1{fill:#ff6d95;}.cls-2{fill:#fff;}</style></defs><g id="레이어_2" data-name="레이어 2"><g id="Layer_1" data-name="Layer 1"><circle class="cls-1" cx="250" cy="250" r="250"/><path class="cls-2" d="M96.58,313.39V186.61A15.64,15.64,0,0,1,112,170.77h40.6c21.29,0,44.73,7.84,59.8,23.52Q235,217.2,235,250q0,33.12-22.91,56.33c-14.87,15.27-38.21,22.9-59.5,22.9H112A15.64,15.64,0,0,1,96.58,313.39Z"/><path class="cls-2" d="M263.48,305.53l38.23-67a5.28,5.28,0,0,0-4.59-7.9H265.81A15.84,15.84,0,0,1,250,214.81v-28.2a15.84,15.84,0,0,1,15.85-15.84h117A15.85,15.85,0,0,1,397,193.7l-37.49,75a5.28,5.28,0,0,0,4.72,7.64h28.39a15.85,15.85,0,0,1,15.84,15.85v21.22a15.84,15.84,0,0,1-15.84,15.84H277.25A15.85,15.85,0,0,1,263.48,305.53Z"/></g></g></svg>