<?xml version="1.0" encoding="UTF-8"?>
<svg fill-rule="evenodd" viewBox="0 0 400 400" xmlns="http://www.w3.org/2000/svg">
<path d="M120.316 93.97c-2.237.992-4.842 4.999-4.462 6.864.027.132-.107.855-.297 1.607l-.628 2.488c-.154.616-.28 1.363-.279 1.66.002.565-.414 2.52-.923 4.345-.165.59-.295 1.293-.289 1.563s-.149 1.107-.343 1.858l-1.071 5.079c-.106.73-.577 2.865-.863 3.91a13.113 13.113 0 0 0-.302 1.465 6.384 6.384 0 0 1-.319 1.265 3.64 3.64 0 0 0-.222 1.16c.005.315-.126 1.063-.291 1.66a29.215 29.215 0 0 0-.466 1.965 18.5 18.5 0 0 1-.371 1.562 5.13 5.13 0 0 0-.206 1.198c0 .284-.123.943-.274 1.466-.45 1.561-.964 3.827-.942 4.157.024.371-.407 2.441-.97 4.658-.226.889-.36 1.666-.299 1.727s-.016.521-.172 1.022l-.454 1.691c-.373 1.699-1.153 3.435-2.371 5.276-.976 1.472-1.489 1.977-3.575 3.513a63.996 63.996 0 0 0-2.629 2.07l-2.083 1.611-3.989 2.839-2.456 1.804c-.43.28-2.232 1.669-4.004 3.087l-3.642 2.81c-.231.128-1.921 1.533-3.756 3.123-4.09 3.543-5.309 5.033-5.986 7.314-.199.671-.433 1.221-.521 1.221s-.158.571-.158 1.269.067 1.27.149 1.27.31.563.507 1.251c.449 1.566 1.525 3.228 3.343 5.16l3.422 3.745a194.65 194.65 0 0 0 4.09 4.395 145.127 145.127 0 0 1 3.632 3.906 300.62 300.62 0 0 0 4.006 4.394 315.265 315.265 0 0 1 4.178 4.59c7.672 8.677 9.975 9.035 17.14 2.668 1.256-1.116 3.276-2.771 4.487-3.677s2.25-1.71 2.306-1.787c.294-.395 5.932-4.354 8.756-6.148 4.86-3.085 11.845-6.904 16.347-8.936l2.735-1.254 2.051-.931 3.678-1.527c.287-.093 1.619-.57 2.962-1.061a126.207 126.207 0 0 1 3.418-1.206l6.153-1.887c.268-.052.971-.236 1.562-.409 1.217-.357 3.676-.947 5.273-1.267a106.21 106.21 0 0 0 2.735-.603c.913-.213 2.099-.438 2.637-.499a26.93 26.93 0 0 0 1.953-.308 63.289 63.289 0 0 1 6.738-.952l5.371-.493c3.715-.369 18.421-.304 20.703.091.645.112 2.271.289 3.613.394 3.972.311 9.84 1.228 13.77 2.152a95.19 95.19 0 0 0 2.734.598c.645.127 1.7.39 2.344.585a57.07 57.07 0 0 0 2.539.683c.752.18 1.675.438 2.051.571a68.06 68.06 0 0 0 2.148.689c.806.245 1.667.521 1.914.615s.58.169.742.169.644.169 1.073.377a7.96 7.96 0 0 0 1.404.514c.343.075 1.153.354 1.799.619a83.35 83.35 0 0 0 1.955.774c.43.16 1.245.502 1.811.761s1.136.47 1.267.47.678.212 1.216.471 1.551.721 2.249 1.026c2.414 1.054 11.11 5.49 11.673 5.955.187.153.646.433 1.022.623.926.465 4.228 2.471 5.641 3.427l.782.512c1.129.704 4.201 2.849 5.344 3.733.748.578 1.422 1.05 1.498 1.05s.349.198.607.44.975.835 1.595 1.318c1.547 1.207 4.583 3.721 5.529 4.58 5.797 5.258 9.559 5.352 13.856.346a77.364 77.364 0 0 1 2.443-2.68 102.2 102.2 0 0 0 2.842-3.125c.839-.967 1.628-1.845 1.754-1.953s.822-.92 1.548-1.807 1.402-1.611 1.5-1.611.179-.124.179-.275.258-.494.575-.76.533-.526.482-.577.239-.346.644-.656 1.133-1.002 1.617-1.536 1.857-1.985 3.051-3.223a197.245 197.245 0 0 0 3.906-4.182 116.027 116.027 0 0 1 2.72-2.933c.664-.675 1.289-1.629 1.925-2.936l.942-1.935-.082-1.968c-.143-3.444-2.556-6.901-7.392-10.589-.532-.405-.967-.807-.967-.892s-.178-.155-.396-.155-.448-.132-.509-.293-.235-.293-.383-.293-.381-.176-.515-.391-.35-.39-.48-.39-.307-.115-.392-.256-1.014-.95-2.061-1.8-1.904-1.619-1.904-1.709-.089-.11-.197-.043-.249-.016-.314-.184-.217-.306-.34-.308-1.014-.628-1.981-1.393-2.11-1.619-2.539-1.901a46.182 46.182 0 0 1-1.952-1.391c-1.039-.78-2.335-1.659-4.347-2.951-.349-.224-.635-.517-.635-.65s-.215-.34-.477-.46c-.575-.262-2.294-1.801-3.979-3.563-1.366-1.429-2.491-3.635-2.934-5.755l-.611-2.734a80.91 80.91 0 0 1-.699-3.418c-.182-1.02-.629-3.04-.992-4.489s-.659-2.849-.659-3.112-.123-.968-.273-1.566c-.853-3.41-1.065-4.342-1.446-6.36-.615-3.259-1.271-6.444-1.591-7.715a39.516 39.516 0 0 1-.597-2.93 54.05 54.05 0 0 0-.693-3.418l-.565-2.539c-.24-1.408-1.029-4.992-1.377-6.25a15.839 15.839 0 0 1-.377-1.83c-.609-4.817-2.234-7.575-4.967-8.427-2.613-.815-3.591-.515-8.021 2.464L268.2 98.73c-.18.108-.601.416-.934.684s-1.257.906-2.052 1.415a148.71 148.71 0 0 0-3.691 2.495 199.27 199.27 0 0 1-3.613 2.466l-2.637 1.765-5.468 3.671c-2.31 1.543-4.397 2.991-4.639 3.219s-.441.345-.444.26-.156.026-.342.246c-.385.458-1.45 1.236-2.245 1.641-.298.151-.864.562-1.258.912s-.78.598-.859.549-.282.051-.451.221-.309.248-.309.173-.141-.018-.314.125a6.094 6.094 0 0 1-.657.463c-.302.179-4.306 2.891-6.003 4.067-3.662 2.535-6.764 4.17-8.261 4.353a121.74 121.74 0 0 0-2.12.295c-1.037.154-1.988.153-3.418-.001a72.097 72.097 0 0 0-4.227-.297 61.504 61.504 0 0 1-4.102-.302c-2.414-.287-18.024-.294-20.508-.009-1.02.116-2.646.255-3.613.308s-2.864.195-4.217.317c-4.163.374-8.392-.628-10.544-2.498-.17-.147-.375-.268-.455-.268s-.643-.33-1.249-.732-1.411-.886-1.791-1.074c-.74-.366-1.059-.571-2.898-1.856-.653-.457-1.25-.83-1.326-.83s-.452-.242-.834-.537c-.787-.609-.825-.635-3.575-2.466-1.109-.739-2.105-1.443-2.212-1.565-.272-.308-3.771-2.659-3.958-2.659-.084 0-.568-.381-1.075-.847s-.955-.815-.993-.776-.182-.064-.318-.227-.371-.298-.522-.298a.443.443 0 0 1-.379-.269c-.056-.147-.427-.433-.824-.634s-.764-.422-.818-.49c-.226-.283-2.022-1.573-3.258-2.339-.733-.454-1.552-1.017-1.82-1.251-.42-.366-1.041-.772-3.223-2.103a19.272 19.272 0 0 1-1.172-.83c-.429-.325-2.363-1.642-4.297-2.927l-4.716-3.217c-.661-.485-1.452-1.033-1.758-1.218-.63-.38-1.092-.674-1.885-1.198-1.659-1.097-4.023-1.387-5.602-.687m71.872 104.952c-2.095.147-4.424.359-5.176.471s-1.983.257-2.735.324a25.26 25.26 0 0 0-2.539.377c-.644.139-2.182.405-3.418.591s-2.773.491-3.418.679a29.08 29.08 0 0 1-2.539.583c-.752.133-1.72.364-2.152.513s-1.311.406-1.953.568c-3.394.861-7.114 2.16-13.473 4.705-3.779 1.513-12.498 5.705-12.797 6.153-.056.083-.363.25-.683.371s-1.488.763-2.595 1.428a228.496 228.496 0 0 1-2.37 1.412c-.198.111-.698.427-1.113.701l-5.149 3.471c-.483.344-1.332.926-1.885 1.293a24.54 24.54 0 0 0-1.881 1.406c-.481.407-1.65 1.354-2.597 2.106-4.672 3.706-6.369 6.427-6.065 9.721.136 1.465.958 3.911 1.492 4.439.054.054.459.581.9 1.172.783 1.05 2.187 2.606 5.544 6.145l8.398 9.084a73.198 73.198 0 0 0 1.574 1.751c.168.168 1.354 1.492 2.637 2.942 6.532 7.385 8.565 8.029 13.691 4.339 3.733-2.688 6.827-4.826 7.447-5.147a24.25 24.25 0 0 0 1.312-.736c1.676-1.031 3.593-2.052 6.054-3.225l3.253-1.587c.285-.157.667-.284.849-.284s.563-.123.849-.272c.662-.348 1.792-.779 3.155-1.205a34.176 34.176 0 0 0 1.989-.699c.503-.2 1.058-.364 1.233-.364s1.257-.256 2.405-.571a73.092 73.092 0 0 1 3.552-.875l2.832-.601c5.026-1.088 20.944-1.082 26.27.01l2.832.571c2.427.481 3.099.638 4.59 1.073.805.236 1.684.46 1.953.499.509.074 4.034 1.256 6.285 2.107 2.514.952 9.799 4.547 12.172 6.007.859.529 1.804 1.069 2.1 1.199s.537.296.537.369.198.181.441.242.767.409 1.166.774c.718.658 2.371 1.973 3.545 2.82 2.755 1.989 4.328 2.397 6.483 1.682 1.664-.552 2.326-1.156 7.569-6.907l5.515-5.957c.612-.645 1.86-2.007 2.774-3.027a500.997 500.997 0 0 1 2.374-2.637l3.245-3.603a1803.88 1803.88 0 0 1 3.06-3.403c.291-.319.485-.651.432-.736s.149-.433.449-.772.522-.694.496-.788.072-.171.221-.171.317-.198.375-.439.232-.782.388-1.201c.693-1.859.217-5.933-.836-7.146-.216-.25-.393-.519-.393-.6 0-.144-1.199-1.333-2.539-2.518-.376-.332-1.43-1.1-2.343-1.706a50.597 50.597 0 0 1-2.93-2.116 64.94 64.94 0 0 0-3.223-2.341c-1.074-.73-2.173-1.518-2.441-1.751s-1.004-.725-1.633-1.094-1.189-.78-1.242-.914a.426.426 0 0 0-.369-.244c-.149 0-.272-.066-.273-.147-.002-.189-1.125-.83-1.456-.83-.139 0-.362-.132-.496-.293s-.37-.293-.526-.293-.666-.263-1.134-.586-.943-.586-1.055-.586-.491-.161-.843-.359a317 317 0 0 0-4.645-2.523 53.264 53.264 0 0 1-2.351-1.341c-1.534-.941-7.347-3.435-11.321-4.855a78.627 78.627 0 0 1-1.855-.682c-.215-.087-1.006-.338-1.758-.557a53.026 53.026 0 0 1-1.953-.603c-1.051-.367-5.443-1.564-6.543-1.783a92.525 92.525 0 0 1-2.637-.583c-.859-.204-1.958-.416-2.441-.473s-1.846-.284-3.028-.506c-2.122-.397-4.236-.723-5.566-.857-8.186-.823-15.957-1.036-22.07-.604m.878 66.76c-.752.106-2.597.447-4.101.759l-3.418.673c-2.095.331-8.107 2.434-11.621 4.068-8.254 3.835-11.372 6.452-12.181 10.224-.429 2.001-.179 4.252.642 5.786 1 1.87 2.061 3.139 7.031 8.414l5.387 5.749c2.863 3.077 2.909 3.124 3.583 3.604.285.203.518.527.518.719s.165.403.367.467c.317.1 3.576 3.566 5.688 6.049.376.442.881 1 1.123 1.239s.439.507.439.596.217.279.482.421.436.331.38.422.124.389.4.665 1.218 1.353 2.094 2.394c6.387 7.589 9.676 9.168 13.842 6.645.877-.531 5.417-5.151 8.988-9.146a648.588 648.588 0 0 1 2.543-2.832l2.727-3.028a273.075 273.075 0 0 1 3.396-3.711 662.9 662.9 0 0 0 3.626-3.895 310.506 310.506 0 0 1 2.636-2.831c.215-.221.83-.892 1.367-1.491l3.209-3.517 3.32-3.614c1.193-1.303 2.788-3.492 2.647-3.633-.049-.049.086-.586.299-1.194 1.298-3.692-.636-7.995-4.727-10.52-8.374-5.166-15.852-7.833-26.508-9.455-2.139-.325-11.935-.344-14.178-.027" fill="#fbfbfb"/>
</svg>
