<svg xmlns="http://www.w3.org/2000/svg" height="168" width="168" xmlns:v="https://vecta.io/nano"><path fill="#1ed760" d="M83.996.277C37.747.277.253 37.77.253 84.019s37.494 83.741 83.743 83.741c46.254 0 83.744-37.49 83.744-83.741S130.25.281 83.995.281l.001-.004zm38.404 120.78a5.22 5.22 0 0 1-7.18 1.73c-19.662-12.01-44.414-14.73-73.564-8.07-2.809.64-5.609-1.12-6.249-3.93s1.11-5.61 3.926-6.25c31.9-7.291 59.263-4.15 81.337 9.34a5.22 5.22 0 0 1 1.73 7.18zm10.25-22.805c-1.89 3.075-5.91 4.045-8.98 2.155-22.51-13.839-56.823-17.846-83.448-9.764a6.54 6.54 0 0 1-8.148-4.35 6.54 6.54 0 0 1 4.354-8.143c30.413-9.228 68.222-4.758 94.072 11.127 3.07 1.89 4.04 5.91 2.15 8.976v-.001zm.88-23.744c-26.99-16.031-71.52-17.505-97.289-9.684-4.138 1.255-8.514-1.081-9.768-5.219s1.08-8.513 5.221-9.771c29.581-8.98 78.756-7.245 109.83 11.202 3.73 2.209 4.95 7.016 2.74 10.733a7.83 7.83 0 0 1-10.73 2.739z"/></svg>