<svg xmlns="http://www.w3.org/2000/svg" viewBox="0 0 500 500"><defs><style>.cls-1{fill:#77f;}.cls-2{fill:#fff;}</style></defs><g id="레이어_2" data-name="레이어 2"><g id="Layer_1" data-name="Layer 1"><rect class="cls-1" width="500" height="500"/><path class="cls-2" d="M182.5,292c-10.36-14.42-23.88-22.08-42.35-22.08-14.42,0-31.54,6.76-31.54,23,0,38.75,116.69,7.21,116.69,91.45,0,51.36-49.11,69.39-93.26,69.39-33.34,0-62.17-8.56-84.25-33.34l36-33.79c14,15.31,28.39,26.58,51.36,26.58,15.77,0,36.05-7.66,36.05-24.78,0-44.6-116.69-9.46-116.69-91.91,0-48.2,43.25-69.83,87-69.83,28.83,0,59.47,9,77,32.89Z"/><path class="cls-2" d="M293,381.6c19.37,0,36,14.87,36,34.24S312.8,451,293,451c-18.92,0-36-14.86-36-34.24S273.16,381.6,293,381.6Z"/></g></g></svg>