<?xml version="1.0" standalone="no"?>
<!DOCTYPE svg PUBLIC "-//W3C//DTD SVG 20010904//EN"
 "http://www.w3.org/TR/2001/REC-SVG-20010904/DTD/svg10.dtd">
<svg version="1.0" xmlns="http://www.w3.org/2000/svg"
 width="700.000000pt" height="700.000000pt" viewBox="0 0 700.000000 700.000000"
 preserveAspectRatio="xMidYMid meet">
<metadata>
Created by potrace 1.14, written by Peter Selinger 2001-2017
</metadata>
<g transform="translate(0.000000,700.000000) scale(0.100000,-0.100000)"
fill="#000000" stroke="none">
<path d="M0 3500 l0 -3500 3500 0 3500 0 0 3500 0 3500 -3500 0 -3500 0 0
-3500z m2268 304 c268 -46 474 -135 640 -277 83 -71 157 -157 145 -168 -4 -4
-118 -107 -253 -228 l-245 -220 -24 32 c-13 18 -54 60 -90 95 -255 246 -750
240 -886 -10 -24 -44 -29 -65 -30 -123 0 -117 48 -177 195 -243 82 -37 124
-49 400 -112 302 -70 434 -110 565 -175 326 -160 466 -387 466 -755 0 -256
-68 -433 -230 -603 -231 -241 -600 -367 -1079 -367 -479 0 -826 123 -1102 391
l-73 71 29 28 c16 16 130 123 252 238 l224 209 80 -79 c138 -137 256 -212 408
-260 65 -20 96 -23 225 -23 158 0 224 13 328 67 62 31 132 103 158 161 45 105
19 239 -62 312 -89 80 -208 123 -578 206 -441 99 -631 184 -783 348 -111 119
-169 267 -184 463 -12 171 19 328 96 485 41 84 66 119 137 193 201 212 478
330 853 364 81 7 330 -4 418 -20z m1943 -2158 c139 -30 277 -132 342 -253 141
-265 -10 -597 -312 -687 -77 -23 -213 -21 -293 4 -116 36 -230 126 -291 231
-105 183 -64 426 99 578 125 118 286 162 455 127z"/>
</g>
</svg>
