<?xml version="1.0" standalone="no"?>
<!DOCTYPE svg PUBLIC "-//W3C//DTD SVG 20010904//EN"
 "http://www.w3.org/TR/2001/REC-SVG-20010904/DTD/svg10.dtd">
<svg version="1.0" xmlns="http://www.w3.org/2000/svg"
 width="500.000000pt" height="500.000000pt" viewBox="0 0 500.000000 500.000000"
 preserveAspectRatio="xMidYMid meet">
<metadata>
Created by potrace 1.14, written by Peter Selinger 2001-2017
</metadata>
<g transform="translate(0.000000,500.000000) scale(0.100000,-0.100000)"
fill="#000000" stroke="none">
<path d="M1479 3806 c-13 -14 -24 -29 -25 -33 0 -4 -6 -33 -12 -63 -7 -30 -14
-64 -16 -75 -60 -292 -99 -470 -112 -507 -16 -48 -60 -93 -161 -164 -147 -103
-262 -206 -264 -237 0 -6 -2 -19 -4 -27 -5 -26 17 -65 69 -122 280 -307 288
-316 321 -324 34 -8 72 11 150 77 124 105 302 208 477 278 271 108 648 139
933 77 201 -44 414 -127 535 -208 19 -12 47 -29 62 -37 15 -8 64 -44 109 -80
173 -139 174 -140 263 -47 33 34 90 95 126 135 36 39 87 95 114 124 54 59 73
92 70 125 -1 12 -2 29 -3 37 -1 15 -63 79 -114 118 -16 12 -52 40 -80 62 -29
22 -70 53 -92 67 -83 57 -126 102 -136 143 -5 22 -11 47 -14 55 -6 24 -56 253
-61 280 -10 57 -55 267 -64 302 -11 40 -42 68 -75 68 -25 0 -77 -31 -272 -165
-381 -261 -379 -259 -447 -258 -70 2 -421 2 -511 0 -54 -1 -67 3 -123 39 -95
59 -277 187 -280 196 -2 4 -8 8 -12 8 -5 0 -57 33 -115 73 -149 101 -157 105
-186 106 -16 1 -36 -9 -50 -23z"/>
<path d="M2275 2500 c-269 -46 -500 -147 -713 -313 -125 -98 -123 -146 13
-289 39 -40 103 -110 143 -155 98 -109 123 -114 212 -41 19 15 40 28 46 28 6
0 17 6 23 14 18 21 167 89 221 101 8 1 34 8 58 14 68 19 110 23 212 24 219 1
392 -51 580 -177 46 -31 93 -56 104 -56 12 0 50 31 96 78 115 120 223 242 243
274 24 41 22 91 -7 125 -25 30 -200 159 -251 185 -16 8 -70 35 -120 60 -100
51 -244 98 -380 124 -125 23 -352 25 -480 4z"/>
<path d="M2385 1674 c-38 -7 -80 -15 -91 -18 -27 -5 -175 -67 -189 -78 -65
-51 -75 -62 -81 -94 -12 -65 -2 -80 210 -305 45 -47 112 -120 149 -162 109
-123 138 -118 282 45 46 52 176 194 252 276 50 54 71 92 67 120 -1 6 -2 20 -3
30 -4 58 -152 141 -313 176 -98 22 -199 25 -283 10z"/>
</g>
</svg>
